<svg xmlns="http://www.w3.org/2000/svg" xmlns:xlink="http://www.w3.org/1999/xlink" viewBox="0 0 1184 894"><defs><style>.cls-1{fill:none;}.cls-2{opacity:0.75;}.cls-3{clip-path:url(#clip-path);}.cls-4,.cls-6{fill:#ffeaea;}.cls-4{opacity:0.53;}.cls-19,.cls-21,.cls-22,.cls-26,.cls-4{isolation:isolate;}.cls-5{clip-path:url(#clip-path-2);}.cls-7{fill:url(#linear-gradient);}.cls-8{fill:url(#linear-gradient-2);}.cls-9{fill:#f2c60b;}.cls-10{fill:#ffd5d5;}.cls-11{fill:#ff9898;}.cls-12{fill:#ff9f9f;}.cls-13{fill:#ffa7a7;}.cls-14,.cls-19{fill:#fff;}.cls-15{fill:#ffbfbf;}.cls-16{fill:#ffc3c3;}.cls-17{fill:#ffacac;}.cls-18{fill:#ff6969;}.cls-19,.cls-22{opacity:0.08;}.cls-20{fill:#d4835d;}.cls-21{opacity:0.08;}.cls-23{fill:#521c1c;}.cls-24{fill:#ffce00;}.cls-25{fill:#692424;}.cls-26{opacity:0.08;}.cls-27{fill:#f95151;}.cls-28{fill:#d84242;}.cls-29{fill:#f55a5a;}.cls-30{clip-path:url(#clip-path-3);}.cls-31{clip-path:url(#clip-path-4);}</style><clipPath id="clip-path"><rect class="cls-1" width="1184" height="894"/></clipPath><clipPath id="clip-path-2"><path class="cls-1" d="M1163.93,600.82C1100.07,814.76,861,929.57,520.73,823S-47.69,430.09,16.18,216.14,395.78-5,736.1,101.55,1227.8,386.87,1163.93,600.82Z"/></clipPath><linearGradient id="linear-gradient" x1="-366.2" y1="987.79" x2="-366.2" y2="986.79" gradientTransform="matrix(1215.79, 0, 0, -436.54, 445811.19, 431299.34)" gradientUnits="userSpaceOnUse"><stop offset="0" stop-color="#ffeaea"/><stop offset="1" stop-color="#fff4f4"/></linearGradient><linearGradient id="linear-gradient-2" x1="-366.25" y1="987.97" x2="-366.25" y2="986.97" gradientTransform="matrix(1477.34, 314.2, 88.53, -416.26, 454148.91, 526555.5)" gradientUnits="userSpaceOnUse"><stop offset="0" stop-color="#ffd5d5"/><stop offset="1" stop-color="#ffeaea"/></linearGradient><clipPath id="clip-path-3"><path class="cls-1" d="M622,338.08c1.66.57,1.32,12,3.37,12.72s4.82-10,4.82-10,6.48,10,10,10,2.84-11.73,4.16-10,15.68,21.93,13.15,13.62S642,306.16,634.22,307.59s-19.21,32-22.28,39.6S620.3,337.52,622,338.08Z"/></clipPath><clipPath id="clip-path-4"><path class="cls-1" d="M720.14,363.45s-.77,17.14,2.07,14,8.65-14,8.65-14,7,19.33,10.39,19.33,2.66-22.7,3.18-19.33,18.23,19,16.54,14-10.69-34.46-23.28-34S720.14,363.45,720.14,363.45Z"/></clipPath></defs><title>9 [Converted]</title><g id="Layer_1" data-name="Layer 1" class="cls-2"><g class="cls-3"><g id="_9" data-name=" 9"><path id="Path_19209" data-name="Path 19209" class="cls-4" d="M1151.63,229.18c81.87,207.39-33.18,450.72-362.88,587.39S106,877.88,24.1,670.49,183,253.89,512.66,117.22,1069.75,21.79,1151.63,229.18Z"/><g class="cls-5"><g id="Mask_Group_10" data-name="Mask Group 10"><path id="Path_19623" data-name="Path 19623" class="cls-6" d="M131.94,94h852.8V761H131.94Z"/><path id="Path_19622" data-name="Path 19622" class="cls-7" d="M-15,89H1182.21V525.5H-15Z"/><path id="Path_18625" data-name="Path 18625" class="cls-6" d="M-21.94,548H1167.28V918.28H-21.94Z"/><path id="Path_17867" data-name="Path 17867" class="cls-8" d="M-237.88,272.14s451.18-208,734.62-28.53,616.13,283.46,646.85,269.94,227.7,51-119.25,48.69c-278.12-1.83-884.86,33.34-1156.56-48.84C-227.89,484.45-237.88,272.14-237.88,272.14Z"/><path id="Path_19621" data-name="Path 19621" class="cls-9" d="M558.29,123.74c32.73,0,59.26,26.94,59.26,60.17S591,244.09,558.29,244.09,499,217.15,499,183.91s26.53-60.17,59.26-60.17Z"/><path id="Path_17866" data-name="Path 17866" class="cls-10" d="M-56.41,173.66S727.85,40.29,1133.93,198.89c15.62,6.1,0-198.13,0-198.13H-56.41Z"/><g id="Group_2600" data-name="Group 2600"><path id="Path_18750" data-name="Path 18750" class="cls-11" d="M78.24,169.31a27.46,27.46,0,0,1-10.32,2.36,16.45,16.45,0,0,1-13.71-7.43,10.09,10.09,0,0,1-13.52-4.9,10.39,10.39,0,0,1,4.82-13.74,10.11,10.11,0,0,1,4.36-1h.35a15.87,15.87,0,0,1,12-18.86,15.51,15.51,0,0,1,14.92,4.89,16.34,16.34,0,0,1,23-3.87,16.79,16.79,0,0,1,6.6,10.43,14,14,0,0,1,17,10.28,14.25,14.25,0,0,1-10.13,17.31,13.8,13.8,0,0,1-7.38-.13c-3.83,4.24-10.11,7-17.2,7A25.34,25.34,0,0,1,78.24,169.31Z"/><path id="Path_18749" data-name="Path 18749" class="cls-11" d="M318.86,97.33a34.66,34.66,0,0,1-13,3,20.73,20.73,0,0,1-17.29-9.38,12.72,12.72,0,0,1-17.06-6.19,13.09,13.09,0,0,1,6.1-17.32,12.67,12.67,0,0,1,5.48-1.25h.44a20,20,0,0,1,15.12-23.8,19.54,19.54,0,0,1,18.81,6.17,20.62,20.62,0,0,1,29-4.89,21.12,21.12,0,0,1,8.32,13.16,17.67,17.67,0,0,1,21.5,13,18,18,0,0,1-12.78,21.83,17.42,17.42,0,0,1-9.31-.17c-4.83,5.35-12.75,8.85-21.7,8.85A31.89,31.89,0,0,1,318.86,97.33Z"/><path id="Path_18751" data-name="Path 18751" class="cls-11" d="M630.9,206.54a35.44,35.44,0,0,0,13.35,3.06A21.17,21.17,0,0,0,662,200a13.09,13.09,0,0,0,17.51-6.45,13.45,13.45,0,0,0-6.35-17.77,12.86,12.86,0,0,0-5.54-1.26h-.45a21.2,21.2,0,0,0,.45-4.35,20.37,20.37,0,0,0-20.1-20.61,20,20,0,0,0-15.14,6.82,21.1,21.1,0,0,0-29.71-5.1,21.7,21.7,0,0,0-8.59,13.61,18.18,18.18,0,0,0-22.13,13.34,18.52,18.52,0,0,0,13.14,22.48,18,18,0,0,0,9.59-.17c5,5.51,13.09,9.1,22.26,9.1A32.52,32.52,0,0,0,630.9,206.54Z"/><path id="Path_18752" data-name="Path 18752" class="cls-11" d="M1042,180.19a41.65,41.65,0,0,0,15.56,3.55,24.74,24.74,0,0,0,20.67-11.2,15.22,15.22,0,0,0,20.39-7.41,15.65,15.65,0,0,0-7.29-20.7,15.16,15.16,0,0,0-6.55-1.49h-.52a23.94,23.94,0,0,0-18.09-28.44,23.36,23.36,0,0,0-22.47,7.38A24.65,24.65,0,0,0,1009,116a25.31,25.31,0,0,0-9.94,15.73,21.12,21.12,0,0,0-25.7,15.51,21.48,21.48,0,0,0,15.27,26.09,20.82,20.82,0,0,0,11.13-.19c5.78,6.4,15.25,10.57,25.94,10.57A38.21,38.21,0,0,0,1042,180.19Z"/></g><path id="Path_18742" data-name="Path 18742" class="cls-12" d="M735.77,345.57c15.51.61,142.89,238.48,142.89,238.48l-269,9.57S720.26,345,735.77,345.57Z"/><path id="Path_18742-2" data-name="Path 18742-2" class="cls-11" d="M632.51,310.29c11.52-.39,94.81,195.2,94.81,195.2l-175.94,6.26S621,310.68,632.51,310.29Z"/><g id="Group_2602" data-name="Group 2602"><path id="Path_18742-3" data-name="Path 18742-3" class="cls-13" d="M90.62,294.4c22.36.36,156,260.42,156,260.42L-47.09,565.27S68.26,294,90.62,294.4Z"/><path id="Path_19624" data-name="Path 19624" class="cls-14" d="M91,336.15c-3.33,0-5.7-15.38-7.14-15.66-.71-.15-1.45,1.51-2.41,3.18s-2.26,3.48-4,3.2c-3.35-.53-7-8.51-7-8.51s.31-.71.9-1.9c8.55-13.79,15.36-22.12,19.29-22.06,5,.08,15.56,13.14,28.94,33.37.33.72.61,1.33.86,1.81,2,3.66-2.27-.62-6.16-4.91-2.46-2.7-4.78-5.41-5.34-6.14.46,1.48-1.29,10.55-4,11.05-2.91.53-7-8-7.69-9.1-.34-.56-1.09,3.6-2.19,7.78-1,3.91-2.36,7.83-4,7.89Z"/></g><path id="Path_18755" data-name="Path 18755" class="cls-15" d="M38.66,485.85s205.62-95,397.83-22.83S818.3,449.62,840.38,443s158.31-82.78,269.86-3.9c28.44,20.11,63.84,69.5-33.33,88.87C791.4,584.85,50.54,597.58,40.69,544.71,27.46,473.74,38.66,485.85,38.66,485.85Z"/><path id="Path_18756" data-name="Path 18756" class="cls-10" d="M-3.6,420.3S117.74,556.08,202.73,539.76s271-176.33,454.19-81,521.37-29.15,521.37-29.15l-.68,201.51s-428.52,1.78-670.94-27.5S-28.6,678.08-28.6,678.08Z"/><g id="Group_2614" data-name="Group 2614"><path id="Path_19625" data-name="Path 19625" class="cls-16" d="M1021,654.94h6.58a19.85,19.85,0,0,1,19.7,20V781.21a19.85,19.85,0,0,1-19.7,20H1021a19.85,19.85,0,0,1-19.69-20V674.94A19.85,19.85,0,0,1,1021,654.94Z"/><path id="Path_18768" data-name="Path 18768" class="cls-17" d="M966.67,727.63c-30.37-3.88-51.54-29.36-47.29-56.9A46.7,46.7,0,0,1,923,658.6c-29-9-47.91-35.74-43.5-64.32,3-19.68,16.41-35.73,34.44-44.28-10.88-11.77-16.44-27.51-13.9-43.91,4.74-30.71,36-52.09,69.91-47.76a71.06,71.06,0,0,1,8.18,1.56c1.85-15.5,14.6-28.78,32.35-31.93a44,44,0,0,1,22.42,1.85c14.56,3.47,25.5,14,28.9,26.81a68.14,68.14,0,0,1,8.59-2.11c33.58-5.94,66.07,13.92,72.57,44.37,3.47,16.25-1.17,32.23-11.37,44.51,18.5,7.68,32.78,23.07,36.94,42.57,6,28.34-11.26,55.9-39.73,66.31a47.19,47.19,0,0,1,4.29,11.94c5.83,27.3-13.85,53.74-43.95,59.07-26.38,4.67-52-8.43-61.87-30.1-7.29,20.71-28.66,35-52.76,35A62.13,62.13,0,0,1,966.67,727.63Z"/></g><g id="Group_2615" data-name="Group 2615"><path id="Path_19627" data-name="Path 19627" class="cls-16" d="M173.75,571.73a8.14,8.14,0,0,1,8.08,8.21h0v35a8.08,8.08,0,1,1-16.16,0v-35a8.14,8.14,0,0,1,8.08-8.21Z"/><path id="Path_18768-2" data-name="Path 18768-2" class="cls-17" d="M153.48,597.28c-10.67-1.36-18.12-10.32-16.62-20a16,16,0,0,1,1.27-4.26c-10.21-3.18-16.84-12.56-15.3-22.61a21,21,0,0,1,12.11-15.57,18.47,18.47,0,0,1-4.89-15.44c1.67-10.8,12.67-18.31,24.58-16.79a25.65,25.65,0,0,1,2.88.55c.65-5.45,5.13-10.12,11.37-11.22a15.42,15.42,0,0,1,7.88.65A13.52,13.52,0,0,1,186.92,502a24.18,24.18,0,0,1,3-.74c11.81-2.09,23.23,4.89,25.51,15.6a18.35,18.35,0,0,1-4,15.65,21.29,21.29,0,0,1,13,15c2.12,10-4,19.65-14,23.31A17.12,17.12,0,0,1,212,575c2,9.6-4.87,18.89-15.46,20.77-9.27,1.64-18.28-3-21.75-10.59-2.56,7.29-10.07,12.29-18.55,12.29A21.3,21.3,0,0,1,153.48,597.28Z"/></g><g id="Group_2611" data-name="Group 2611"><path id="Path_19626" data-name="Path 19626" class="cls-16" d="M71.69,701.75a8.14,8.14,0,0,1,8.09,8.2h0v35a8.09,8.09,0,1,1-16.17,0V710a8.14,8.14,0,0,1,8.08-8.2Z"/><path id="Path_18768-3" data-name="Path 18768-3" class="cls-17" d="M51.43,727.3c-10.68-1.37-18.12-10.32-16.63-20A16.61,16.61,0,0,1,36.07,703c-10.21-3.18-16.84-12.57-15.29-22.62a21,21,0,0,1,12.11-15.56A18.47,18.47,0,0,1,28,649.42c1.67-10.8,12.67-18.31,24.58-16.79a23.58,23.58,0,0,1,2.88.55c.64-5.45,5.13-10.12,11.37-11.23a15.42,15.42,0,0,1,7.88.65A13.54,13.54,0,0,1,84.87,632a24.22,24.22,0,0,1,3-.75c11.8-2.08,23.22,4.9,25.51,15.61a18.3,18.3,0,0,1-4,15.64,21.29,21.29,0,0,1,13,15c2.13,10-4,19.65-14,23.31a16.61,16.61,0,0,1,1.51,4.2c2,9.6-4.87,18.9-15.45,20.77-9.27,1.64-18.29-3-21.75-10.58-2.56,7.28-10.08,12.29-18.55,12.29A23,23,0,0,1,51.43,727.3Z"/></g><path id="Path_19628" data-name="Path 19628" class="cls-16" d="M187.94,877.81V856.05c-20.77,2.34-41.68,10-48.92,10-1.47,0-2.38-.31-2.61-1-1.68-5.34,9.84-39.81,24-70.19-8.44,2.15-14.33,3.56-14.92,1.67-1.56-5,10.46-40,24-67.11-7.49,1.9-12.83,3.33-13.34,1.72-2-6.48,25.46-78.17,38.76-77.92S234.16,726,232,731.09c-.59,1.38-5.48-.68-12.8-2.81,13.34,27.71,25.18,64.16,23.46,68.19-.7,1.65-6.17-.52-14.47-3,14,31.19,25.35,67.21,23.5,71.55-.91,2.15-8.63-1.16-20.15-4.47a128.22,128.22,0,0,0-25.08-4.84v22.13a9.25,9.25,0,1,1-18.5,0Z"/><path id="Path_19630" data-name="Path 19630" class="cls-15" d="M455,616.54V601.05c-14.79,1.67-29.67,7.12-34.83,7.12-1.05,0-1.69-.23-1.85-.75-1.2-3.8,7-28.34,17-50-6,1.52-10.19,2.53-10.62,1.18-1.1-3.54,7.45-28.43,17.1-47.77-5.33,1.35-9.14,2.37-9.5,1.23-1.43-4.62,18.12-55.65,27.6-55.47s28,51.81,26.41,55.47c-.42,1-3.9-.48-9.11-2,9.5,19.72,17.92,45.67,16.7,48.54-.5,1.17-4.39-.37-10.31-2.16,9.94,22.2,18.05,47.84,16.74,50.94-.65,1.52-6.15-.83-14.35-3.18a91.15,91.15,0,0,0-17.85-3.46v15.76a6.59,6.59,0,1,1-13.17,0Z"/><path id="Path_19629" data-name="Path 19629" class="cls-17" d="M311.59,753.48V717.19c-34.66,3.9-69.52,16.67-81.61,16.67-2.45,0-4-.52-4.35-1.76C222.84,723.2,242,665.7,265.57,615c-14.07,3.58-23.89,5.94-24.87,2.77-2.6-8.3,17.44-66.62,40-111.93-12.48,3.17-21.4,5.55-22.24,2.88-3.38-10.82,42.46-130.4,64.65-130s65.54,121.4,61.89,130c-1,2.31-9.14-1.13-21.35-4.67,22.26,46.2,42,107,39.14,113.73-1.17,2.74-10.29-.87-24.15-5,23.29,52,42.29,112.1,39.21,119.34-1.52,3.57-14.4-1.94-33.61-7.45a214.47,214.47,0,0,0-41.83-8.09v36.91a15.43,15.43,0,1,1-30.86,0h0Z"/><g id="Group_2621" data-name="Group 2621"><g id="Group_2616" data-name="Group 2616"><path id="Path_18117" data-name="Path 18117" class="cls-18" d="M702.92,701s-4,0-4,2.36,12.23,44.42,15.06,44.24,56.23-3.21,56.23-3.21-14-43.52-16-43.39S702.92,701,702.92,701Z"/><path id="Path_18118" data-name="Path 18118" class="cls-19" d="M702.92,700.21s-4,0-4,1.55,9.33,27.79,11.64,29.2,54.63-1.9,54.63-1.9-10.13-28.89-11-28.85C752.1,700.3,702.92,700.21,702.92,700.21Z"/><g id="Group_2582" data-name="Group 2582"><path id="Path_19666" data-name="Path 19666" class="cls-15" d="M711.06,711.29h-.67a2,2,0,0,1-2-2v-.67a2,2,0,0,1,1.93-2H711a2,2,0,0,1,2,2v.67A2,2,0,0,1,711.06,711.29Z"/><path id="Path_19665" data-name="Path 19665" class="cls-15" d="M715.87,723.68h-.67a2,2,0,0,1-2-2V721a2,2,0,0,1,1.93-2h.67a2,2,0,0,1,2,2v.67A2,2,0,0,1,715.87,723.68Z"/><path id="Path_19664" data-name="Path 19664" class="cls-15" d="M718.28,729.87h-.67a2,2,0,0,1-2-2v-.68a2,2,0,0,1,1.93-2l.67,0a2,2,0,0,1,2,2v.68A2,2,0,0,1,718.28,729.87Z"/><path id="Path_19663" data-name="Path 19663" class="cls-15" d="M755.67,716.75H755a2,2,0,0,1-2-2v-.68a2,2,0,0,1,1.93-2h.67a2,2,0,0,1,2,2v.68A2,2,0,0,1,755.67,716.75Z"/><path id="Path_19662" data-name="Path 19662" class="cls-15" d="M705.68,711.38H705a2,2,0,0,1-2-2v-.67a2,2,0,0,1,1.94-2h.67a2,2,0,0,1,2,2v.67A2,2,0,0,1,705.68,711.38Z"/><path id="Path_19661" data-name="Path 19661" class="cls-15" d="M710.5,723.77h-.67a2,2,0,0,1-2-2v-.67a2,2,0,0,1,1.93-2h.67a2,2,0,0,1,2,2v.67A2,2,0,0,1,710.5,723.77Z"/><path id="Path_19660" data-name="Path 19660" class="cls-15" d="M712.9,730h-.66a2,2,0,0,1-2-2l0-.68a2,2,0,0,1,1.94-2h.67a2,2,0,0,1,2,2v.68A2,2,0,0,1,712.9,730Z"/><path id="Path_19659" data-name="Path 19659" class="cls-15" d="M750.3,716.85h-.67a2,2,0,0,1-2-2v-.68a2,2,0,0,1,1.93-2h.67a2,2,0,0,1,2,2v.67A2,2,0,0,1,750.3,716.85Z"/><path id="Path_19658" data-name="Path 19658" class="cls-15" d="M743.29,710.73h-.67a2,2,0,0,1-2-2v-.67a2,2,0,0,1,1.93-2h.67a2,2,0,0,1,2,2v.68A2,2,0,0,1,743.29,710.73Z"/><path id="Path_19657" data-name="Path 19657" class="cls-15" d="M748.1,723.12h-.67a2,2,0,0,1-2-2v-.67a2,2,0,0,1,1.94-2H748a2,2,0,0,1,2,2l0,.67A2,2,0,0,1,748.1,723.12Z"/><path id="Path_19656" data-name="Path 19656" class="cls-15" d="M750.51,729.31h-.67a2,2,0,0,1-2-2v-.68a2,2,0,0,1,1.93-2h.67a2,2,0,0,1,2,2v.68A2,2,0,0,1,750.51,729.31Z"/><path id="Path_19655" data-name="Path 19655" class="cls-15" d="M744.93,716.94h-.67a2,2,0,0,1-2-2v-.67a2,2,0,0,1,1.93-2h.67a2,2,0,0,1,2,2v.67A2,2,0,0,1,744.93,716.94Z"/><path id="Path_19654" data-name="Path 19654" class="cls-15" d="M737.91,710.82h-.66a2,2,0,0,1-2-2l0-.68a2,2,0,0,1,1.94-2h.67a2,2,0,0,1,2,2v.68A2,2,0,0,1,737.91,710.82Z"/><path id="Path_19653" data-name="Path 19653" class="cls-15" d="M742.73,723.21h-.67a2,2,0,0,1-2-2v-.68a2,2,0,0,1,1.93-2h.67a2,2,0,0,1,2,2v.68A2,2,0,0,1,742.73,723.21Z"/><path id="Path_19652" data-name="Path 19652" class="cls-15" d="M745.13,729.41h-.66a2,2,0,0,1-2-2l0-.67a2,2,0,0,1,1.94-2h.67a2,2,0,0,1,2,2v.67A2,2,0,0,1,745.13,729.41Z"/><path id="Path_19651" data-name="Path 19651" class="cls-15" d="M739.55,717h-.66a2,2,0,0,1-2-2v-.68a2,2,0,0,1,1.94-2l.67,0a2,2,0,0,1,2,2V715A2,2,0,0,1,739.55,717Z"/><path id="Path_19650" data-name="Path 19650" class="cls-15" d="M732.54,710.91l-.66,0a2,2,0,0,1-2-2v-.68a2,2,0,0,1,1.94-2h.66a2,2,0,0,1,2,2v.68A2,2,0,0,1,732.54,710.91Z"/><path id="Path_19649" data-name="Path 19649" class="cls-15" d="M737.36,723.3l-.67,0a2,2,0,0,1-2-2v-.68a2,2,0,0,1,1.93-2h.67a2,2,0,0,1,2,2v.68A2,2,0,0,1,737.36,723.3Z"/><path id="Path_19648" data-name="Path 19648" class="cls-15" d="M739.76,729.5h-.66a2,2,0,0,1-2-2v-.67a2,2,0,0,1,1.94-2h.66a2,2,0,0,1,2,2v.67A2,2,0,0,1,739.76,729.5Z"/><path id="Path_19647" data-name="Path 19647" class="cls-15" d="M734.18,717.12h-.66a2,2,0,0,1-2-2v-.68a2,2,0,0,1,1.94-2h.66a2,2,0,0,1,2,2v.68A2,2,0,0,1,734.18,717.12Z"/><path id="Path_19646" data-name="Path 19646" class="cls-15" d="M727.17,711h-.66a2,2,0,0,1-2-2v-.67a2,2,0,0,1,1.94-2h.66a2,2,0,0,1,2,2V709A2,2,0,0,1,727.17,711Z"/><path id="Path_19645" data-name="Path 19645" class="cls-15" d="M732,723.4h-.66a2,2,0,0,1-2-2l0-.67a2,2,0,0,1,1.94-2h.67a2,2,0,0,1,2,2v.67A2,2,0,0,1,732,723.4Z"/><path id="Path_19644" data-name="Path 19644" class="cls-15" d="M734.39,729.59h-.67a2,2,0,0,1-2-2V727a2,2,0,0,1,1.94-2h.66a2,2,0,0,1,2,2l0,.68A2,2,0,0,1,734.39,729.59Z"/><path id="Path_19643" data-name="Path 19643" class="cls-15" d="M728.81,717.22h-.67a2,2,0,0,1-2-2v-.67a2,2,0,0,1,1.94-2h.66a2,2,0,0,1,2,2l0,.67A2,2,0,0,1,728.81,717.22Z"/><path id="Path_19642" data-name="Path 19642" class="cls-15" d="M721.8,711.1h-.67a2,2,0,0,1-2-2v-.68a2,2,0,0,1,1.94-2l.66,0a2,2,0,0,1,2,2l0,.68A2,2,0,0,1,721.8,711.1Z"/><path id="Path_19641" data-name="Path 19641" class="cls-15" d="M726.61,723.49H726a2,2,0,0,1-2-2v-.68a2,2,0,0,1,1.94-2l.66,0a2,2,0,0,1,2,2v.68A2,2,0,0,1,726.61,723.49Z"/><path id="Path_19640" data-name="Path 19640" class="cls-15" d="M729,729.68l-.67,0a2,2,0,0,1-2-2v-.68a2,2,0,0,1,1.93-2h.67a2,2,0,0,1,2,2v.68A2,2,0,0,1,729,729.68Z"/><path id="Path_19639" data-name="Path 19639" class="cls-15" d="M723.44,717.31h-.67a2,2,0,0,1-2-2v-.67a2,2,0,0,1,1.93-2h.67a2,2,0,0,1,2,2v.67A2,2,0,0,1,723.44,717.31Z"/><path id="Path_19638" data-name="Path 19638" class="cls-15" d="M716.43,711.19h-.67a2,2,0,0,1-2-2v-.68a2,2,0,0,1,1.93-2h.67a2,2,0,0,1,2,2v.68A2,2,0,0,1,716.43,711.19Z"/><path id="Path_19637" data-name="Path 19637" class="cls-15" d="M721.24,723.58h-.66a2,2,0,0,1-2-2V721a2,2,0,0,1,1.94-2h.66a2,2,0,0,1,2,2v.68A2,2,0,0,1,721.24,723.58Z"/><path id="Path_19636" data-name="Path 19636" class="cls-15" d="M723.65,729.78H723a2,2,0,0,1-2-2v-.67a2,2,0,0,1,1.93-2h.67a2,2,0,0,1,2,2v.67A2,2,0,0,1,723.65,729.78Z"/><path id="Path_19635" data-name="Path 19635" class="cls-15" d="M718.07,717.4h-.67a2,2,0,0,1-2-2v-.68a2,2,0,0,1,1.93-2H718a2,2,0,0,1,2,2v.68A2,2,0,0,1,718.07,717.4Z"/><path id="Path_19634" data-name="Path 19634" class="cls-15" d="M753.26,710.56l-5.27.09a2,2,0,0,1-2-2V708a2,2,0,0,1,1.93-2l5.27-.09a2,2,0,0,1,2,2v.67A2,2,0,0,1,753.26,710.56Z"/><path id="Path_19633" data-name="Path 19633" class="cls-15" d="M758.08,723l-5.27.09a2,2,0,0,1-2-2v-.67a2,2,0,0,1,1.94-2l5.27-.09a2,2,0,0,1,2,2v.67A2,2,0,0,1,758.08,723Z"/><path id="Path_19632" data-name="Path 19632" class="cls-15" d="M760.48,729.14l-5.27.09a2,2,0,0,1-2-2v-.68a2,2,0,0,1,1.93-2l5.27-.09a2,2,0,0,1,2,2v.68A2,2,0,0,1,760.48,729.14Z"/><path id="Path_19631" data-name="Path 19631" class="cls-15" d="M712.7,717.49l-5.27.1a2,2,0,0,1-2-2v-.68a2,2,0,0,1,1.94-2l5.27-.09a2,2,0,0,1,2,2v.68A2,2,0,0,1,712.7,717.49Z"/></g><path id="Path_18121" data-name="Path 18121" class="cls-20" d="M666.92,693.72s-5.12,7.61-6.42,11.6A191.78,191.78,0,0,0,653,729.11c-3.42,15-5.65,32.22-8.44,34.4a120.58,120.58,0,0,1-15.62,10c-2.17,1-10-2.11-10,0s.64,5.32,8.32,7.77,27.17,3.51,28.55,0,1.18-13.72,2.51-16.4,5.1-14.82,13-19.58,4.42-11.94,4.42-11.94S699,694,691,688.42,666.92,693.72,666.92,693.72Z"/><path id="Path_18122" data-name="Path 18122" class="cls-21" d="M666.92,693.72s-5.12,7.61-6.42,11.6A191.78,191.78,0,0,0,653,729.11c-3.42,15-5.65,32.22-8.44,34.4a120.58,120.58,0,0,1-15.62,10c-2.17,1-10-2.11-10,0s.64,5.32,8.32,7.77,27.17,3.51,28.55,0,1.18-13.72,2.51-16.4,5.1-14.82,13-19.58,4.42-11.94,4.42-11.94S699,694,691,688.42,666.92,693.72,666.92,693.72Z"/><path id="Path_18120" data-name="Path 18120" class="cls-20" d="M708.5,661.62s-4.52-8.5-11.92-6.68-26.22,7.08-38.33,8.26-24.62,6.78-37.9,6.34-26.5,2.1-35.18-2.37-15-10.29-19.27-12.23-9.37.36-7.32,4.18,11.77,14.67,17.29,16.61,11.29,5.8,16,13.34,6.68,13.83,13,9.11,8.18-11.89,22.7-10.35,37.31,8.41,43.92,4.31,14.08-5.21,16.15-4.31,7.16,10.35,7.16,10.35l4.4,5.63Z"/><path id="Path_18119" data-name="Path 18119" class="cls-22" d="M726.11,733.06c-.09,1.23,4.35,11.14,5.38,11.82s24.32-.91,24.32-.91-4.69-12.82-5.09-12.8-6,.45-12.08.71S726.16,732.42,726.11,733.06Z"/><path id="Path_18114" data-name="Path 18114" class="cls-23" d="M698.26,793.34s-11.18.77-13.9-21.84-13.75-50.4-14.21-53-3.93-19.12,21.32-24.74c1.37-.31,4.32,2.46,6.79,8.16,1.16,2.68,1.58,6.89,3,10.59,2.63,6.85,5.53,14.76,8.32,21.44,1.3,3.1,2.69,9.41,4.53,11.46s4.62-.28,5.73,1.41c1.3,2,0,4.91,0,4.91L707.3,771.5Z"/><path id="Path_18113" data-name="Path 18113" class="cls-24" d="M712.07,797.81s-12.36,2.48-13.71-1.6,12-33.3,15.91-38.52a85.34,85.34,0,0,1,8.34-9.47Z"/><path id="Path_18112" data-name="Path 18112" class="cls-20" d="M760.7,811.29s-47,1.84-48.29-3.88,1.49-46.28,5.45-51.84-.46-21.45,5.67-22.16,9-6.2,14.56,0,5.29,12.41,4.07,14.53S737,760.49,734,763.15s.18,19.62,2.51,19.71,21-2.89,21-2.89-3.22,8.53-2.42,16.36S760.7,811.29,760.7,811.29Z"/><path id="Path_18111" data-name="Path 18111" class="cls-20" d="M789.4,743.3s-14.55-11.75-16.14-15.5-8-11.6-13.64-12.45-10.71.49-11.27,3.78,1.1,4.42,3.12,5,9.78,5.34,10.54,7.13,5,4.64,4.1,9.45,1.42,5.9,1.42,5.9,8.85.83,14.32,0S789.4,743.3,789.4,743.3Z"/><path id="Path_18109" data-name="Path 18109" class="cls-24" d="M842.62,747.76s-17.82-3.82-22.72-3.69-28.4-1.78-34.87,0-40.13-1.83-42.33,2.12-2.11,7.52-7.59,14.66-1.23,23.14,1.31,23.09,18.93-1.94,20.86-3.14-5.3,4.91-3.49,15.7,5.42,16.27,7.46,16.65,37.11-2.65,51.44,0,17.36.52,16.69-5.81a48.51,48.51,0,0,1,1.29-15.65c.09-.35,1.25-14.64,1.48-15.05,1.79-3.14,7.15-8.12,7.15-8.12Z"/><path id="Path_18108" data-name="Path 18108" class="cls-23" d="M854.74,718.9s-7,4.58-6,5.72,2.36,3.57,6,0S854.74,718.9,854.74,718.9Z"/><path id="Path_18107" data-name="Path 18107" class="cls-20" d="M853.5,724.71a102.93,102.93,0,0,0-7.18,8.81c-1.7,2.72-5.6,3.17-5.45,5.92s2.2,9.06,1.19,11.71-5.28,6.47-5.21,9.55.12,10.51,1.85,10.11,9.19,1.12,10.21-2.87S853.5,724.71,853.5,724.71Z"/><path id="Path_18106" data-name="Path 18106" class="cls-25" d="M899.5,716.48s-6.63-13.75-18-16.71-15.56-2.44-19,1.28-8.72,14.82-9.45,24.45-7.24,29-6.5,34.57,1.75,8.95,3.54,8.63,13-2.45,14.06-4.25c.62-1.07-6.37-31.67,3.67-45.25C874.5,710.25,899.5,716.48,899.5,716.48Z"/><path id="Path_18105" data-name="Path 18105" class="cls-23" d="M879.13,712.48s-7.45-2.57-10.48,0-11,13.35-9.75,27.22,3.2,24.41,4.57,25,6.19.29,8.13-1.9c1-1.15-6-15.86-4.25-28.91C868.86,722.42,879.13,712.48,879.13,712.48Z"/><path id="Path_18104" data-name="Path 18104" class="cls-25" d="M907.72,762.44c.11-.9,13.46-9.1,10.7-24.62s-11.62-20.57-16.9-21.23-21.66-6.87-24.53-2.66-12.48,13-10.51,29.49,3.4,20.51,4.54,20.43,9.19-5.31,18.08-4.16S907.61,763.33,907.72,762.44Z"/><path id="Path_18110" data-name="Path 18110" class="cls-26" d="M758,780s10.36-3,20.65-7.2c11.73-4.74,23.95-10.22,28-2.6,7.52,14.08,1.1,30.92,0,34s-7.17,7.16-9.42,7.66S769,812,761.9,813c-4.43.64-8.1-11.42-7.8-21.49C754.28,785.73,758,780,758,780Z"/><path id="Path_18116" data-name="Path 18116" class="cls-27" d="M754.74,701.75s11.57-42.11,9.28-42.15-55-3.2-55.72,0-10.53,42.23-9,42.15S754.74,701.75,754.74,701.75Z"/><path id="Path_18115" data-name="Path 18115" class="cls-18" d="M755.5,698.3s11.57-44,9.28-44.09-55-3.35-55.72,0-10.53,44.18-9,44.09S755.5,698.3,755.5,698.3Z"/></g><g id="Group_2617" data-name="Group 2617"><path id="Path_18126" data-name="Path 18126" class="cls-28" d="M962.13,794.81A12.62,12.62,0,0,1,964,809.58c-4.44,8.77-14.42,5.66-14.42,5.66L944,820.9s24.7-1.56,25.45-11.32-3-18.3-5.51-18.73S962.13,794.81,962.13,794.81Z"/><path id="Path_18123" data-name="Path 18123" class="cls-18" d="M947,820.92c6.26-4.44,25.17-28.47,17.29-37.4s-52.17-23.85-56.17-20.79-1.82,6-8.3,7.61-2.78,5.67-12.74,8.48-32.87,7.86-34.38,2.36-.72-9.83-4.16-7.49-7.22,10.76-9.13,9.83-6.77-.78-7.2-2.34-5.05,27.6,0,30.3,20.53,6,39.74,5.7,16.08,1.33,24.45,1.57S916.69,831,924.21,829,940.75,825.37,947,820.92Z"/><path id="Path_18127" data-name="Path 18127" class="cls-26" d="M953.84,812.67s-96.33-22.8-98.94-27.78c-1.15-2.2-1.15-8.17-2.31-11.2-1.27-3.33-4.11-3.26-10.65,0-11.72,5.85-12.48,15.75-12,25.44s-2.58,9.62,12,13.54c13.13,3.52,12.56,7.26,30.18,3.81,1.71-.34,23.62,2.67,28.35,2.37,6.77-.44,13,9.73,21.78,10.28s14.73-6.31,20.84-7c7.56-.86,12-9.47,12-9.47Z"/><path id="Path_18124" data-name="Path 18124" class="cls-27" d="M908.85,765.32,907.78,762s-14-5.76-25.9-2.39-44.08,9.6-46.42,12-4.09,13.61-2.72,15,12.6,1.75,15-4.79,3.07-14.14,42.42-14.86c4-.08,10.83,1.83,15.24,1.36C907.46,768.05,908.85,765.32,908.85,765.32Z"/><path id="Path_18125" data-name="Path 18125" class="cls-29" d="M904.7,765.66s8.19-4,2.65-1.26c-2.09,1-4,9.42-13.13,13.83C879.6,785.31,855.45,789,852,786.1c-5.6-4.65-4.8-13-4.8-13s8.7-5.62,23.09-7.49S904.7,765.66,904.7,765.66Z"/></g></g><g class="cls-30"><g id="Mask_Group_12" data-name="Mask Group 12"><path id="Path_19215" data-name="Path 19215" class="cls-14" d="M632.51,310.29c11.52-.39,94.81,195.2,94.81,195.2l-175.94,6.26S621,310.68,632.51,310.29Z"/></g></g><g class="cls-31"><g id="Mask_Group_13" data-name="Mask Group 13"><path id="Path_19217" data-name="Path 19217" class="cls-14" d="M735.77,345.57c15.51.61,142.89,238.48,142.89,238.48l-269,9.57S720.26,345,735.77,345.57Z"/></g></g></g></g></g></g></g></svg>